<?xml version="1.0" encoding="utf-8"?>
<!-- Generator: Adobe Illustrator 23.0.1, SVG Export Plug-In . SVG Version: 6.00 Build 0)  -->
<svg version="1.1" xmlns="http://www.w3.org/2000/svg" xmlns:xlink="http://www.w3.org/1999/xlink" viewBox="0 0 566.9 238.1">
<style type="text/css">
	.st0{fill:rgba(0,0,0, 0.75);}
	.st1{fill:#A7A9AC;}
</style>
<g id="w-t-preston">
	<g>
		<g>
			<path class="st0" d="M555.4,158.2c3,0,6-0.9,8.9-1.7c0.9-0.3,2-0.7,2.4-1.6c0.3-0.6,0.1-1.3,0.1-2c-0.3-1.2-0.7-2.4-1.9-3
				c-0.9-0.4-1.9-0.1-2.7,0c-2,0.6-4,1.3-6.2,1.6s-4.5,0-6-1.4c-2.4-2-3.2-5.8-6.1-7.3c-1.7-0.9-3.7-0.6-5.5,0.3
				c-1.7,1-3.2,2.4-4.3,3.9c-1.3,1.6-2.4,3.2-3.9,4.5c-0.1,0-0.1,0.1-0.3,0.1c-0.4,0-0.6-0.4-0.4-0.9c0-1.3,0.3-2.6,0.3-4
				c0.1-1.3,0-2.7-0.7-3.9s-2.2-1.9-3.5-1.7c-1.2,0.1-2,1.2-2.6,2.2c-0.4,1.2-0.6,2.3-0.6,3.5c-0.1,3,0.3,6.1,0.7,8.9
				c0.3,2.3,0.9,5.3,3.5,6.1c1.6,0.6,3.3-0.3,4.8-1.3c3.6-2.9,5.6-7.2,8.9-10.5c0.1-0.1,0.3-0.3,0.6-0.3c0.3-0.1,0.6,0.3,0.9,0.6
				c1,1.2,1.9,2.4,2.9,3.6c2.3,2.6,5.6,4.2,9.1,4.6h1.6V158.2z M508.3,144.7c0.4,2.6,0.3,5.3-0.1,8.1c-0.3,1.2-0.6,2.4-1.3,3.5
				c-0.1,0.4-0.4,0.9-0.9,1c-2,0.9-2-2.4-1.6-3.5c0.4-0.6,1-1.3,1.6-1.7c0.4-0.7,1-1.4,0.9-2.3c0-1.6-2.2-2.4-2.2-4.2
				c0.1-1,1-1.7,2.2-2c0.3-0.1,0.9-0.1,1,0.3C508,144,508.2,144.3,508.3,144.7L508.3,144.7z M514.5,143c-0.4-1.3-1-2.7-2-3.7
				c-1-1.3-2.7-2.3-4.5-2.4c-0.9,0.1-1.9,0.4-2.7,0.9c-2.6,0.9-5.5,1.9-6.6,4.5c-0.4,1.3-0.4,2.7-0.1,4c0.1,0.9,0.4,1.7,0.3,2.4
				c-0.1,0.6-0.4,1.3-0.7,1.9c-2.2,5.3,0.6,13.4,6.9,14c3.5,0.4,6.6-1.9,8.4-4.9c1.7-3,2.2-6.6,2-10.1
				C515.3,147.3,515,145,514.5,143 M489,147.6c0.1-3.9,0.6-7.8,1.6-11.7c0-0.4,0.1-0.9,0.4-1.3c0.7-1,2.3-1.2,3.5-1
				c1.3,0.1,2.6,0.3,3.7-0.3c1.2-0.7,1.6-2.4,1.3-4c-0.3-1.3-1-2.9-2.3-3.5c-0.4-0.1-1.2-0.3-1.4-0.7c-0.4-0.6-0.3-1.2-0.4-1.9
				c0-1.3-0.7-2.6-1.9-3.3c-1.2-0.9-2.6-1-3.9-0.3c-1.4,0.9-2.2,2.6-2.6,4.2c-0.4,1.2-0.9,2.3-1.2,3.3c-0.1,0.6-0.4,1.2-0.7,1.6
				c-0.7,0.7-1.7,0.9-2.7,1c-2.2,0.4-4.3,0.9-6.5,1.4c-1,0.3-2,0.6-2.7,1.3c-2.6,2.2,0.3,5.6,2.9,6.2c1.6,0.3,3.5-0.3,4.9-1.3
				c0.6-0.4,1.2-0.9,1.9-0.6c0.6,0.4,0.4,1.3,0.3,2c-1.4,6.8-0.1,13.7,0.1,20.6c0.1,1.6,0.1,3.3,0.7,4.9c0.7,1.4,2,2.9,3.7,2.9
				c1.4,0,2.7-1,3.5-2.3c0.7-1.2,1-2.6,1.2-4c0-0.4,0.1-0.7-0.1-1.2c-0.3-0.3-0.7-0.3-1.2-0.4c-0.7-0.4-1-1.4-1.2-2.3
				C489.2,153.9,489,150.8,489,147.6 M458.3,148.6c0-0.6-0.1-1.2-0.3-1.7c-0.4-1.4-1.7-2.6-3.2-2.9c-2.3-0.4-4.6,1.4-5.3,3.7
				c-1,3.2-0.4,7.5,1.4,10.4c1.7,2.6,4.3,4.6,6.1,7.2c0.3,0.3,0.4,0.6,0.4,1c0.1,0.6-0.3,1.2-0.6,1.6c-0.7,1-1.2,2.2-1.6,3.5
				c-0.3,1-0.4,2-0.1,3.2c0.3,1.4,1.3,2.7,2.4,3.9c1,1.2,2.3,2.3,3.7,2.3c1.2,0,2.2-0.6,2.9-1.3c0.6-0.9,1-1.9,1.3-3
				c0.6-2,0.7-4.3,0.4-6.5c-0.1-1.2-0.3-2.3,0-3.3c0.4-1.2,1.3-1.9,2.2-2.6c3.7-2.9,8.2-4.8,13-5.6c1.3-0.1,2.9-0.4,3.7-1.3
				c1.2-1,1.3-2.6,1.2-4c-0.1-1.2-0.4-2.3-1.3-2.9c-0.7-0.4-1.7-0.6-2.4-0.3c-0.9,0.1-1.7,0.6-2.4,1c-5.6,2.7-12.2,4-16.6,8.6
				c-0.3,0.3-0.9,0.7-1.3,0.6c-0.3,0-0.4-0.3-0.7-0.4l-3.6-4.3c-0.4-0.6-0.9-1-1-1.7c-0.1-0.9,0.6-1.6,0.9-2.4
				C458,150.5,458.3,149.5,458.3,148.6 M425.6,143c0,0.3,0,0.7-0.1,1c-0.9,2.7-2.9,5-5.3,6.6c-0.1,0-0.3,0.1-0.3,0
				c-0.1-0.1-0.1-0.1-0.1-0.3c0.7-2.2,1.7-4.3,3-6.2c0.4-0.6,1.3-2.2,2-2.2C425.3,142,425.6,142.4,425.6,143 M425.3,135.5
				c-2.9-0.4-4.5,1-6,3.2c-3.7,4.5-5.8,10.1-5.9,15.8c0,2.3,0.3,4.8,1.6,6.8c1.3,2.4,3.9,3.9,6.6,4.6c2.6,0.6,5.3,0.6,8.1,0.3
				c7.9-1.2,15.6-4.2,21.5-9.4c1-1,1.3-1.3,1.6-2.9c0.6-1.4-1.3-5.3-3.5-3.9c-0.7,0.6-1.6,1.4-2.2,2.3c-4.9,5.3-12.5,7.2-19.7,8.2
				c-2.4,0.4-5.2,0.4-6.9-1.2c-0.3-0.3-0.6-0.7-0.4-1.2l0.4-0.4c3.3-1.9,6.5-4.2,8.6-7.2c2.3-2.9,3.2-7.1,1.9-10.7
				C429.9,137.6,427.6,135.9,425.3,135.5 M378.3,159.5c0.3,2,1,4,3.3,4.8c1.3,0.3,2.9,0,3.9-1c1-0.9,1.4-2,2-3.2
				c1.4-3.5,3.5-6.6,6.1-9.4c1.2-1.3,2.7-2.4,4.5-2.7c1.6-0.1,3.2,0.6,4.8,1c1.3,0.4,2.9,0.4,4.2-0.3c1.3-0.7,2.2-2.3,1.7-3.6
				c-0.3-1-1.2-1.6-2.2-2c-0.9-0.4-1.9-0.6-2.9-0.9c-1.7-0.4-3.3-1.3-5-1.6c-2.2-0.4-4.3,0.1-6.2,1.2c-1.9,1-3.5,2.4-4.8,4
				c-0.9,1-1.7,2-2.9,2.9c-0.4-4.3-0.1-8.8,0-13.1c0.1-1.3,0.1-2.7-0.1-4.2c-0.3-1.3-1-2.7-2.3-3.5c-1.2-0.7-2.9-0.7-3.9,0.4
				c-0.7,0.9-1,2-1,3.2c-0.4,6.1-0.6,12.2-0.1,18.3c0.1,3,0.4,6.1,0.9,8.9C378.2,159.1,378.3,159.3,378.3,159.5 M284.1,183.5
				c-0.7,0.3-1.4,0.4-2,0.4c-1.3-5.6-0.6-12-0.6-17.7c0-5.9,0.1-11.8,0.1-17.9c0.1-11.7-0.1-23.5-2.7-34.9c-0.1-0.7-0.4-1.6-0.1-2.3
				c0.3-0.9,1-1.4,1.7-1.9c21.2-14.3,46-22.9,71.3-24.8C357.9,84,363.9,84,370,85c5.3,0.9,10.9,3.2,13.1,8.1
				c1.6,3.6,0.9,7.8-0.3,11.4c-4.6,13.7-15.6,24.1-26.5,33.3c-11.7,9.8-23.9,19-36.6,27.4c-9.7,6.5-19.7,12.5-30.7,16.4
				C287.6,182,285.8,183,284.1,183.5 M392.6,94c-0.3-2.3-1.2-4.6-2.3-6.6c-4.5-7.1-13.5-9.7-21.9-10.5c-25.1-2.7-50.4,3.9-73.3,14.6
				c-6,2.9-12,5.9-17.6,9.7c-20.5,14.1-34.4,36.6-40.6,60.7c-1.7,6.8-2.9,14.1-0.9,20.9c0.4,1.4,1.2,2.9,2.3,3.7
				c1.3,0.9,3.3,0.7,4-0.4c0.6-0.9,0.6-1.9,0.4-2.7c-0.9-24.2,9.7-48.7,28.1-64.7l3,109.6c0.1,2.4,0.3,5.2,1.7,7.3
				c1.4,1.9,4.5,2.7,6.6,1.7c2.6-1.3,2.6-4.3,2.4-6.8l-2.6-39.5c3.6,2,8.1,0.1,11.8-1.7c26.2-13,50.7-29.5,72.5-49
				c9.9-8.9,19.5-18.7,24.2-31.1C392.4,104.4,393.4,98.9,392.6,94 M200.5,162.6c0.6,0.1,1.2,0.1,1.7,0c1-0.3,2-1,2.4-1.9
				c0.6-0.9,0.7-1.9,0.6-2.7c-0.3-1-1-1.7-1.9-2.3c-1.3-0.9-2.7-1.2-4-0.6c-1.3,0.6-2.2,2-2.2,3.5
				C197.3,160.4,198.6,162.3,200.5,162.6 M192.6,99.8c-0.4,0-0.9,0.1-1.3,0.1c0.3-2.4-1.7-4.9-4.2-5.5c-2.3-0.6-5,1.2-5.9,3.5
				c-0.6,1.6-0.3,3.3-0.7,4.9c-1,4-5.5,6-9.4,8.1c-8.4,4.2-15.3,11.5-19.3,20.2c-0.7,1.7-1.4,3.6-1.3,5.6c0.1,1.9,1.4,3.7,3.3,4.2
				c3.6,0.9,5.8-3.5,7.2-6.6c3.7-8.4,11.1-15,19.7-18.2c-1.7,22.9-3.6,61.1,0,83.8c1,7.1,5.9,21.8,15.8,18c2.4-0.9,4.3-3.6,3.6-6.1
				c-0.7-2.4-4.2-3.7-6-2c-6.6-8.6-6.6-20.6-6.2-31.7c0.4-16.3,1-47.5,1.6-64.1c0-1.2,0.1-2.3,0.7-3.2c0.9-1.9,2.9-2.4,4.6-2.9
				c35.4-9.5,70.9-19.2,106.2-28.5c3.2-0.9,7.1-2.7,6.8-6.1c-0.4-1.9-2.2-3.3-4.2-3.5c-2.2-0.3-4,0.3-5.9,0.9
				C262.9,81.2,227.8,90.4,192.6,99.8 M141.5,162.6c0.6,0.1,1.2,0.1,1.7,0c1-0.3,2-1,2.4-1.9c0.6-0.9,0.7-1.9,0.6-2.7
				c-0.3-1-1-1.7-1.9-2.3c-1.3-0.9-2.7-1.2-4-0.6c-1.3,0.6-2.2,2-2.2,3.5C138.3,160.4,139.6,162.3,141.5,162.6 M35.3,199
				c-5.8,7.5-11.4,15.3-16.9,23.3c-5.6-7.5-7.5-17-8.5-26.1C5.7,158.5,16.2,121,23.7,83.7c0.4-1.9,0.6-4.5-1.3-5.6
				c-1.2-0.7-3,0-4,1.2s-1.6,2.6-1.9,4.2c-4.5,17.4-8.6,34.7-11.8,52.4c-5.2,27.8-8.2,57.3,2.3,83.6c1.4,3.5,3,6.9,5.9,9.2
				c12.5,10.5,23.3-15.7,28.5-23.5c5.8-8.5,13.1-15.8,21.6-21.8c1-0.6,1.9-1.3,3.2-1.3c2.3-0.3,4.2,1.6,5.8,3.3
				c4.3,5,9.5,10.2,16.1,11.4c5.6,1.2,11.4-0.9,16-4c4.6-3.2,8.2-7.6,11.7-12.2c11.4-15.7,20-35,16.9-54.2
				c-2.6-17.4-14.4-31.8-25.8-45.4c-2.3-2.7-4.9-5.8-8.5-6.5c-1.1-0.1-2.2,0.8-2.3,1.6c-0.6,6.5,4.5,11.8,8.8,16.4
				c8.8,9.4,16.4,20.5,18.6,33c3.5,18.9-5.8,37.7-17.6,52.7c-4.5,5.6-10.8,11.5-17.7,9.7c-6.6-1.9-9.7-10.1-15.8-13.3
				c-4-1.9-8.8-1.3-12.8,0.6c-4,2-7.2,5-10.2,8.2C44.4,188.4,39.7,193.5,35.3,199"/>
		</g>
	</g>
</g>
<g id="adventures-on-the">
	<g>
		<g>
			<path class="st1" d="M539.1,45.7h21v-5.2h-15.2V25.2h8.1l1.7-5.6h-9.9V7.2h15.3V1.5H539v44.2H539.1z M523.5,45.7h5.7V1.5h-5.7
				v18.1h-15.7V1.5H502v44.2h5.7V25.2h15.7L523.5,45.7L523.5,45.7z M481.3,45.7h5.7V7.2h10V1.5h-25.4v5.7h9.7L481.3,45.7L481.3,45.7
				z M443.3,45.7h5.8V1.5h-5.8V34L423.8,1.5H418v44.2h5.7V13.1L443.3,45.7z M403.2,15v18.1c0,2.4-0.7,4.2-2.1,5.5s-3.2,2-5.5,2
				c-2.4,0-4.2-0.7-5.5-2s-2-3.1-2-5.5V15c0-2.8,0.6-4.9,1.7-6.3c1.2-1.4,3.1-2.1,5.8-2.1c2.7,0,4.6,0.7,5.8,2.1
				C402.6,10.1,403.2,12.2,403.2,15 M408.9,34V13.8c0-4.1-1.1-7.4-3.4-9.7c-2.3-2.4-5.5-3.5-9.7-3.5s-7.4,1.1-9.8,3.3
				s-3.6,5.5-3.6,9.9V34c0,2.9,0.6,5.3,1.9,7.1c1.3,1.9,2.9,3.2,5,4c2,0.8,4.2,1.2,6.4,1.2c3.6,0,6.7-1,9.3-3
				C407.6,41.4,408.9,38.3,408.9,34 M334,33.8l-6.1,0.7c0.1,2,0.7,3.9,1.9,5.7c1.2,1.8,2.8,3.3,5.1,4.5c2.2,1.2,4.9,1.7,8,1.7
				c5.1,0,8.9-1.2,11.4-3.6c2.5-2.4,3.7-5.5,3.7-9.3c0-2.7-0.7-5-2-6.9c-1.3-1.8-3-3.3-4.8-4.4c-1.9-1.1-4.3-2.2-7.2-3.4
				c-2.1-0.9-3.7-1.6-4.8-2.2c-1.1-0.6-2.1-1.3-2.8-2.1c-0.8-0.8-1.1-1.7-1.1-2.8c0-1.6,0.7-2.9,2.1-3.8s3.4-1.4,6-1.4
				c2.4,0,4.8,0.5,7.3,1.5l1.8-5.4c-1.4-0.7-2.8-1.2-4.1-1.5c-1.3-0.3-3.1-0.4-5.1-0.4c-3.1,0-5.7,0.5-7.9,1.6
				c-2.1,1.1-3.8,2.4-4.8,4.1c-1.1,1.7-1.6,3.4-1.6,5.3c0,2.3,0.5,4.2,1.6,5.7s2.4,2.7,4,3.5c1.6,0.9,3.7,1.8,6.3,2.8
				c2.4,1,4.4,1.8,5.7,2.6c1.4,0.7,2.6,1.7,3.5,3c0.9,1.2,1.4,2.8,1.4,4.6c0,2-0.8,3.6-2.3,4.9c-1.6,1.3-3.7,1.9-6.5,1.9
				c-2.5,0-4.5-0.7-6.1-2C335.1,37.4,334.2,35.8,334,33.8 M301.1,45.7h21v-5.2h-15.2V25.2h8.1l1.7-5.6h-9.9V7.2h15.4V1.5h-21.1V45.7
				z M279.7,26.8h-8.5V7.2h7.6c2.6,0,4.6,0.6,6,1.9s2.1,3.6,2.1,6.9c0,1.9-0.1,3.6-0.4,5.1s-0.9,2.8-1.9,3.9
				C283.5,26.2,281.9,26.8,279.7,26.8 M287,45.7h5.9l-5.2-15.4c1.6-1.1,2.7-2.5,3.4-4.1c0.7-1.6,1.2-3.2,1.4-4.8
				c0.2-1.6,0.3-3.3,0.3-5.4c0-4.2-1-7.7-3.1-10.4s-5.1-4.1-9.2-4.1h-15.2v44.2h5.7V32.3h9.8c0.6,0,1.1,0,1.5-0.1L287,45.7z
				 M250.3,1.4v30.9c0,5.5-2.5,8.3-7.6,8.3c-5,0-7.5-2.8-7.5-8.3V1.4h-5.7V34c0,4.3,1.3,7.3,3.9,9.3c2.6,1.9,5.7,2.9,9.4,2.9
				s6.8-1,9.4-2.9c2.6-1.9,3.9-5,3.9-9.3V1.4H250.3z M209,45.7h5.7V7.2h10V1.5h-25.4v5.7h9.7V45.7z M188.5,45.7h5.8V1.5h-5.8V34
				L169,1.5h-5.7v44.2h5.7V13.1L188.5,45.7z M133.9,45.7h21v-5.2h-15.2V25.2h8.1l1.7-5.6h-9.9V7.2h15.3V1.5h-21.1L133.9,45.7
				L133.9,45.7z M108,45.7h7l11.6-44.2H120l-8.5,33.8l-8.7-33.8h-6.4L108,45.7z M85.7,15.1v18.6c0,2.7-0.8,4.5-2.4,5.4
				s-3.7,1.3-6.3,1.3h-6.4V7.1h6.8c2.5,0,4.5,0.7,6,2C84.9,10.4,85.7,12.4,85.7,15.1 M64.9,45.7H78c8.9,0,13.4-4.2,13.4-12.6V15.8
				c0-4.3-1.3-7.8-3.8-10.4s-6.1-3.9-10.9-3.9H64.9V45.7z M43.2,11l4.5,15.8h-8.8L43.2,11z M52.6,45.7h6.7L47,1.5h-7.5L27.8,45.7
				h6.4l3.3-12.9h11.6L52.6,45.7z"/>
		</g>
	</g>
</g>
</svg>
